<svg width="40" height="40" viewBox="0 0 40 40" fill="none" xmlns="http://www.w3.org/2000/svg">
<path d="M10.032 15.0568L10.497 15.4724V12.8843H8.73389V15.4724L9.19889 15.0568C9.31346 14.9543 9.46176 14.8977 9.61545 14.8977C9.76914 14.8977 9.91744 14.9543 10.032 15.0568Z" fill="#607587"/>
<path d="M16.7306 26.4905V13.5093C16.7306 13.3435 16.6648 13.1845 16.5476 13.0673C16.4304 12.9501 16.2714 12.8843 16.1056 12.8843H11.75V16.8693C11.75 16.9899 11.7151 17.108 11.6494 17.2093C11.5837 17.3105 11.4902 17.3906 11.38 17.4398C11.2698 17.4891 11.1478 17.5054 11.0285 17.4868C10.9093 17.4681 10.798 17.4154 10.7081 17.3349L9.61875 16.3612L8.52875 17.3349C8.43884 17.4154 8.32756 17.4681 8.20833 17.4868C8.0891 17.5054 7.96703 17.4891 7.85686 17.4398C7.74669 17.3906 7.65313 17.3105 7.58748 17.2093C7.52182 17.108 7.48688 16.9899 7.48688 16.8693V12.8843H3.125C2.95924 12.8843 2.80027 12.9501 2.68306 13.0673C2.56585 13.1845 2.5 13.3435 2.5 13.5093V26.4905C2.5 26.6563 2.56585 26.8153 2.68306 26.9325C2.80027 27.0497 2.95924 27.1155 3.125 27.1155H16.1056C16.2714 27.1155 16.4304 27.0497 16.5476 26.9325C16.6648 26.8153 16.7306 26.6563 16.7306 26.4905ZM11.8281 20.0099L9.52187 22.3162C9.40467 22.4333 9.24573 22.4991 9.08 22.4991C8.91427 22.4991 8.75533 22.4333 8.63812 22.3162L7.4025 21.0805C7.34281 21.0229 7.29519 20.9539 7.26244 20.8777C7.22968 20.8014 7.21244 20.7194 7.21172 20.6364C7.211 20.5534 7.22681 20.4711 7.25824 20.3943C7.28966 20.3175 7.33607 20.2477 7.39475 20.189C7.45344 20.1303 7.52322 20.0839 7.60003 20.0525C7.67684 20.0211 7.75914 20.0053 7.84213 20.006C7.92511 20.0067 8.00713 20.024 8.08338 20.0567C8.15963 20.0895 8.2286 20.1371 8.28625 20.1968L9.08 20.9905L10.9444 19.1249C11.002 19.0652 11.071 19.0176 11.1472 18.9848C11.2235 18.9521 11.3055 18.9348 11.3885 18.9341C11.4715 18.9334 11.5538 18.9492 11.6306 18.9806C11.7074 19.0121 11.7772 19.0585 11.8359 19.1172C11.8946 19.1758 11.941 19.2456 11.9724 19.3224C12.0038 19.3992 12.0196 19.4815 12.0189 19.5645C12.0182 19.6475 12.0009 19.7295 11.9682 19.8058C11.9354 19.882 11.8878 19.951 11.8281 20.0087V20.0099Z" fill="#607587"/>
<path d="M30.3844 12.8843C28.9771 12.8843 27.6014 13.3016 26.4312 14.0835C25.261 14.8654 24.349 15.9767 23.8104 17.2769C23.2719 18.5771 23.131 20.0078 23.4055 21.3881C23.6801 22.7684 24.3578 24.0363 25.3529 25.0314C26.3481 26.0265 27.6159 26.7042 28.9962 26.9788C30.3765 27.2534 31.8072 27.1124 33.1075 26.5739C34.4077 26.0353 35.519 25.1233 36.3009 23.9531C37.0827 22.783 37.5001 21.4072 37.5001 19.9999C37.4976 18.1135 36.7471 16.305 35.4132 14.9711C34.0793 13.6372 32.2708 12.8868 30.3844 12.8843ZM30.3844 19.3749C31.0115 19.3739 31.6173 19.6025 32.0874 20.0175C32.5576 20.4325 32.8596 21.0052 32.9365 21.6276C33.0134 22.25 32.8598 22.8789 32.5048 23.3959C32.1498 23.9128 31.6179 24.282 31.0094 24.4337V24.9287C31.0094 25.0944 30.9436 25.2534 30.8264 25.3706C30.7092 25.4878 30.5502 25.5537 30.3844 25.5537C30.2187 25.5537 30.0597 25.4878 29.9425 25.3706C29.8253 25.2534 29.7594 25.0944 29.7594 24.9287V24.4337C29.2045 24.2948 28.7118 23.9748 28.3592 23.5244C28.0066 23.0739 27.8142 22.5188 27.8126 21.9468C27.8126 21.781 27.8784 21.622 27.9956 21.5048C28.1128 21.3876 28.2718 21.3218 28.4376 21.3218C28.6033 21.3218 28.7623 21.3876 28.8795 21.5048C28.9967 21.622 29.0626 21.781 29.0626 21.9468C29.0624 22.2084 29.1399 22.4642 29.2852 22.6818C29.4304 22.8993 29.637 23.0689 29.8787 23.1691C30.1203 23.2693 30.3863 23.2955 30.6429 23.2445C30.8995 23.1935 31.1352 23.0675 31.3202 22.8826C31.5052 22.6976 31.6312 22.4619 31.6822 22.2053C31.7332 21.9487 31.7069 21.6827 31.6068 21.441C31.5066 21.1993 31.337 20.9928 31.1194 20.8475C30.9018 20.7023 30.646 20.6248 30.3844 20.6249C29.7573 20.6259 29.1516 20.3973 28.6814 19.9823C28.2113 19.5673 27.9093 18.9946 27.8324 18.3722C27.7555 17.7499 27.909 17.1209 28.264 16.6039C28.619 16.087 29.1509 15.7178 29.7594 15.5662V15.0712C29.7594 14.9054 29.8253 14.7464 29.9425 14.6292C30.0597 14.512 30.2187 14.4462 30.3844 14.4462C30.5502 14.4462 30.7092 14.512 30.8264 14.6292C30.9436 14.7464 31.0094 14.9054 31.0094 15.0712V15.5662C31.5644 15.7049 32.0573 16.0249 32.4101 16.4753C32.7628 16.9257 32.9552 17.4809 32.9569 18.053C32.9569 18.2188 32.8911 18.3778 32.7739 18.495C32.6567 18.6122 32.4977 18.678 32.3319 18.678C32.1662 18.678 32.0072 18.6122 31.89 18.495C31.7728 18.3778 31.7069 18.2188 31.7069 18.053C31.707 17.7914 31.6296 17.5357 31.4843 17.3181C31.3391 17.1005 31.1326 16.9309 30.891 16.8308C30.6493 16.7306 30.3834 16.7043 30.1268 16.7552C29.8702 16.8062 29.6345 16.9321 29.4495 17.117C29.2645 17.302 29.1385 17.5376 29.0874 17.7942C29.0363 18.0507 29.0625 18.3167 29.1625 18.5584C29.2626 18.8 29.4321 19.0066 29.6496 19.152C29.8671 19.2973 30.1228 19.3749 30.3844 19.3749Z" fill="#607587"/>
<path opacity="0.4" d="M12.0623 10.4236C12.1802 10.5375 12.3381 10.6005 12.502 10.5991C12.6658 10.5976 12.8226 10.5319 12.9385 10.416C13.0544 10.3001 13.1201 10.1434 13.1215 9.97951C13.1229 9.81564 13.0599 9.65776 12.9461 9.53988L11.7386 8.33176H27.0686C27.6184 8.33242 28.1455 8.55112 28.5342 8.93988C28.923 9.32864 29.1417 9.85572 29.1423 10.4055C29.1423 10.5713 29.2082 10.7302 29.3254 10.8475C29.4426 10.9647 29.6016 11.0305 29.7673 11.0305C29.9331 11.0305 30.0921 10.9647 30.2093 10.8475C30.3265 10.7302 30.3923 10.5713 30.3923 10.4055C30.3914 9.5243 30.0409 8.67947 29.4177 8.05636C28.7946 7.43325 27.9498 7.08275 27.0686 7.08176H11.7411L12.9486 5.87488C13.066 5.75736 13.1318 5.59803 13.1317 5.43194C13.1316 5.26586 13.0655 5.10662 12.948 4.98926C12.8304 4.8719 12.6711 4.80604 12.505 4.80615C12.3389 4.80627 12.1797 4.87236 12.0623 4.98988L9.78797 7.26488C9.6708 7.38209 9.60498 7.54103 9.60498 7.70676C9.60498 7.87249 9.6708 8.03143 9.78797 8.14863L12.0623 10.4236Z" fill="#607587"/>
<path opacity="0.4" d="M27.9374 29.5766C27.8798 29.5169 27.8108 29.4693 27.7346 29.4365C27.6583 29.4038 27.5763 29.3865 27.4933 29.3858C27.4103 29.3851 27.328 29.4009 27.2512 29.4323C27.1744 29.4638 27.1046 29.5102 27.0459 29.5689C26.9872 29.6275 26.9408 29.6973 26.9094 29.7741C26.878 29.8509 26.8622 29.9332 26.8629 30.0162C26.8636 30.0992 26.8809 30.1812 26.9136 30.2575C26.9464 30.3337 26.994 30.4027 27.0537 30.4604L28.2612 31.6685H12.9312C12.3814 31.6678 11.8543 31.4491 11.4655 31.0604C11.0768 30.6716 10.8581 30.1445 10.8574 29.5947C10.8574 29.429 10.7916 29.27 10.6744 29.1528C10.5572 29.0356 10.3982 28.9697 10.2324 28.9697C10.0667 28.9697 9.90769 29.0356 9.79048 29.1528C9.67327 29.27 9.60742 29.429 9.60742 29.5947C9.60841 30.4759 9.95891 31.3208 10.582 31.9439C11.2051 32.567 12.05 32.9175 12.9312 32.9185H28.2587L27.0512 34.1253C26.9338 34.2429 26.8679 34.4022 26.8681 34.5683C26.8682 34.7344 26.9343 34.8936 27.0518 35.011C27.1693 35.1283 27.3287 35.1942 27.4947 35.1941C27.6608 35.194 27.8201 35.1279 27.9374 35.0103L30.2118 32.7354C30.329 32.6181 30.3948 32.4592 30.3948 32.2935C30.3948 32.1277 30.329 31.9688 30.2118 31.8516L27.9374 29.5766Z" fill="#607587"/>
</svg>
